<?xml version="1.0" encoding="UTF-8"?>
<svg width="2000px" height="1000px" viewBox="0 0 2000 1000" version="1.1" xmlns="http://www.w3.org/2000/svg" xmlns:xlink="http://www.w3.org/1999/xlink">
    <!-- Generator: Sketch 60 (88103) - https://sketch.com -->
    <title>logo</title>
    <desc>Created with Sketch.</desc>
    <defs>
        <linearGradient x1="85.9268461%" y1="58.3597288%" x2="20.196057%" y2="40.528506%" id="linearGradient-1">
            <stop stop-color="#384B50" offset="0%"></stop>
            <stop stop-color="#476563" offset="100%"></stop>
        </linearGradient>
        <path d="M413.434,731.044 C416.840667,731.044 420.101333,730.022 423.216,727.978 L423.216,727.978 L440.006,716.59 L434.166,707.976 L417.376,719.364 C416.597333,719.850667 415.867333,720.094 415.186,720.094 C414.31,720.094 413.604333,719.753333 413.069,719.072 C412.533667,718.390667 412.412,717.466 412.704,716.298 L412.704,716.298 L430.37,641.4 C430.759333,639.94 430.954,638.382667 430.954,636.728 C430.954,632.64 429.713,629.622667 427.231,627.676 C424.749,625.729333 421.902,624.756 418.69,624.756 C417.035333,624.756 415.380667,624.999333 413.726,625.486 C412.071333,625.972667 410.465333,626.751333 408.908,627.822 L408.908,627.822 L391.68,639.502 L397.52,648.116 L414.602,636.436 C415.380667,635.949333 416.110667,635.706 416.792,635.706 C417.765333,635.706 418.519667,636.022333 419.055,636.655 C419.590333,637.287667 419.712,638.188 419.42,639.356 L419.42,639.356 L401.754,714.4 C401.364667,715.86 401.17,717.417333 401.17,719.072 C401.17,723.16 402.411,726.177333 404.893,728.124 C407.375,730.070667 410.222,731.044 413.434,731.044 Z M518.846,645.196 C521.668667,645.196 524.077667,644.198333 526.073,642.203 C528.068333,640.207667 529.066,637.798667 529.066,634.976 C529.066,632.153333 528.068333,629.744333 526.073,627.749 C524.077667,625.753667 521.668667,624.756 518.846,624.756 C516.023333,624.756 513.614333,625.753667 511.619,627.749 C509.623667,629.744333 508.626,632.153333 508.626,634.976 C508.626,637.798667 509.623667,640.207667 511.619,642.203 C513.614333,644.198333 516.023333,645.196 518.846,645.196 Z M507.166,731.044 C510.572667,731.044 513.833333,730.022 516.948,727.978 L516.948,727.978 L533.738,716.59 L527.898,707.976 L511.108,719.364 C510.329333,719.850667 509.599333,720.094 508.918,720.094 C508.042,720.094 507.336333,719.753333 506.801,719.072 C506.265667,718.390667 506.144,717.466 506.436,716.298 L506.436,716.298 L517.24,671.184 C517.629333,669.626667 517.824,668.069333 517.824,666.512 C517.824,662.424 516.607333,659.406667 514.174,657.46 C511.740667,655.513333 508.869333,654.54 505.56,654.54 C502.056,654.54 498.795333,655.562 495.778,657.606 L495.778,657.606 L478.55,669.286 L484.39,677.9 L501.472,666.22 C502.153333,665.830667 502.883333,665.636 503.662,665.636 C504.732667,665.636 505.487,666.001 505.925,666.731 C506.363,667.461 506.484667,668.312667 506.29,669.286 L506.29,669.286 L495.486,714.4 C495.096667,715.957333 494.902,717.514667 494.902,719.072 C494.902,723.16 496.118667,726.177333 498.552,728.124 C500.985333,730.070667 503.856667,731.044 507.166,731.044 Z M590.824,731.044 C594.133333,731.044 597.345333,730.022 600.46,727.978 L600.46,727.978 L619.878,714.838 L614.038,706.224 L594.62,719.364 C593.841333,719.850667 593.111333,720.094 592.43,720.094 C591.554,720.094 590.848333,719.753333 590.313,719.072 C589.777667,718.390667 589.656,717.466 589.948,716.298 L589.948,716.298 L600.314,667.096 L628.346,667.096 L628.346,656.584 L602.65,656.584 L609.366,624.756 L597.978,624.756 L591.262,656.584 L566.15,656.584 L566.15,667.096 L588.926,667.096 L578.998,714.4 C578.803333,715.178667 578.657333,715.933 578.56,716.663 C578.462667,717.393 578.414,718.098667 578.414,718.78 C578.414,722.868 579.630667,725.934 582.064,727.978 C584.497333,730.022 587.417333,731.044 590.824,731.044 Z M677.548,731.044 C682.317333,731.044 686.551333,730.508667 690.25,729.438 C693.948667,728.367333 697.209333,726.907333 700.032,725.058 C702.854667,723.208667 705.288,721.043 707.332,718.561 C709.376,716.079 711.079333,713.426667 712.442,710.604 L712.442,710.604 L703.098,705.348 C702.124667,707.392 700.932333,709.314333 699.521,711.115 C698.109667,712.915667 696.430667,714.521667 694.484,715.933 C692.537333,717.344333 690.225667,718.439333 687.549,719.218 C684.872333,719.996667 681.830667,720.386 678.424,720.386 C671.610667,720.386 666.646667,718.658333 663.532,715.203 C660.417333,711.747667 658.86,707.343333 658.86,701.99 C658.86,700.919333 658.908667,699.897333 659.006,698.924 C659.103333,697.950667 659.249333,697.074667 659.444,696.296 L659.444,696.296 L717.552,696.296 L719.158,689.434 C719.742,687.000667 720.034,684.47 720.034,681.842 C720.034,678.338 719.45,674.955667 718.282,671.695 C717.114,668.434333 715.362,665.514333 713.026,662.935 C710.69,660.355667 707.721333,658.311667 704.12,656.803 C700.518667,655.294333 696.284667,654.54 691.418,654.54 C684.507333,654.54 678.326667,655.878333 672.876,658.555 C667.425333,661.231667 662.850667,664.76 659.152,669.14 C655.453333,673.52 652.630667,678.557 650.684,684.251 C648.737333,689.945 647.764,695.858 647.764,701.99 C647.764,706.564667 648.494,710.652667 649.954,714.254 C651.414,717.855333 653.458,720.897 656.086,723.379 C658.714,725.861 661.853,727.759 665.503,729.073 C669.153,730.387 673.168,731.044 677.548,731.044 Z M708.354,685.784 L661.926,685.784 C662.899333,682.864 664.262,680.163 666.014,677.681 C667.766,675.199 669.858667,673.033333 672.292,671.184 C674.725333,669.334667 677.426333,667.899 680.395,666.877 C683.363667,665.855 686.551333,665.344 689.958,665.344 C695.311333,665.344 699.788667,666.706667 703.39,669.432 C706.991333,672.157333 708.792,676.148 708.792,681.404 C708.792,682.766667 708.646,684.226667 708.354,685.784 L708.354,685.784 Z M778.872,729 L778.872,718.488 L761.644,718.488 L768.506,686.076 C769.09,683.350667 769.990333,680.722667 771.207,678.192 C772.423667,675.661333 773.908,673.447 775.66,671.549 C777.412,669.651 779.480333,668.142333 781.865,667.023 C784.249667,665.903667 786.902,665.344 789.822,665.344 C793.91,665.344 797.243667,666.463333 799.823,668.702 C802.402333,670.940667 803.692,674.396 803.692,679.068 C803.692,680.722667 803.448667,682.766667 802.962,685.2 L802.962,685.2 L815.372,684.324 C815.956,681.696 816.248,679.116667 816.248,676.586 C816.248,669.967333 814.252667,664.638333 810.262,660.599 C806.271333,656.559667 800.772,654.54 793.764,654.54 C789.968,654.54 786.318,655.343 782.814,656.949 C779.31,658.555 776.146667,661.353333 773.324,665.344 L773.324,665.344 L771.572,665.344 C771.28,661.548 770.014667,658.798333 767.776,657.095 C765.537333,655.391667 762.909333,654.54 759.892,654.54 C756.485333,654.54 753.127333,655.659333 749.818,657.898 L749.818,657.898 L736.824,666.658 L742.664,675.272 L755.95,666.22 C756.631333,665.733333 757.361333,665.49 758.14,665.49 C759.016,665.49 759.746,665.806333 760.33,666.439 C760.914,667.071667 761.06,667.972 760.768,669.14 L760.768,669.14 L750.256,718.488 L732.444,718.488 L732.444,729 L778.872,729 Z M885.598,731.044 C887.252667,731.044 888.883,730.800667 890.489,730.314 C892.095,729.827333 893.433333,729.194667 894.504,728.416 L894.504,728.416 L901.074,723.452 L894.942,714.838 L889.686,718.634 C889.004667,719.120667 888.323333,719.364 887.642,719.364 C886.960667,719.364 886.425333,719.145 886.036,718.707 C885.646667,718.269 885.549333,717.612 885.744,716.736 L885.744,716.736 L898.592,656.584 L887.204,656.584 L884.868,667.972 L883.116,667.972 C882.045333,663.592 879.758,660.258333 876.254,657.971 C872.75,655.683667 868.516,654.54 863.552,654.54 C857.030667,654.54 851.288,655.878333 846.324,658.555 C841.36,661.231667 837.199,664.76 833.841,669.14 C830.483,673.52 827.928,678.581333 826.176,684.324 C824.424,690.066667 823.548,696.004 823.548,702.136 C823.548,706.418667 824.132,710.336333 825.3,713.889 C826.468,717.441667 828.122667,720.483333 830.264,723.014 C832.405333,725.544667 835.033333,727.515667 838.148,728.927 C841.262667,730.338333 844.766667,731.044 848.66,731.044 C853.234667,731.044 857.590333,730.095 861.727,728.197 C865.863667,726.299 869.440667,722.770667 872.458,717.612 L872.458,717.612 L874.21,717.612 C874.112667,718.098667 874.039667,718.585333 873.991,719.072 C873.942333,719.558667 873.918,720.045333 873.918,720.532 C873.918,722.478667 874.258667,724.109 874.94,725.423 C875.621333,726.737 876.521667,727.807667 877.641,728.635 C878.760333,729.462333 880.001333,730.070667 881.364,730.46 C882.726667,730.849333 884.138,731.044 885.598,731.044 Z M852.164,720.24 C846.713333,720.24 842.576667,718.585333 839.754,715.276 C836.931333,711.966667 835.52,707.1 835.52,700.676 C835.52,696.101333 836.128333,691.672667 837.345,687.39 C838.561667,683.107333 840.386667,679.335667 842.82,676.075 C845.253333,672.814333 848.197667,670.210667 851.653,668.264 C855.108333,666.317333 859.123333,665.344 863.698,665.344 C869.440667,665.344 873.674667,667.169 876.4,670.819 C879.125333,674.469 880.488,679.311333 880.488,685.346 C880.488,690.31 879.758,694.909 878.298,699.143 C876.838,703.377 874.818333,707.051333 872.239,710.166 C869.659667,713.280667 866.642333,715.738333 863.187,717.539 C859.731667,719.339667 856.057333,720.24 852.164,720.24 Z M949.546,731.044 C952.952667,731.044 956.213333,730.022 959.328,727.978 L959.328,727.978 L976.118,716.59 L970.278,707.976 L953.488,719.364 C952.709333,719.850667 951.979333,720.094 951.298,720.094 C950.422,720.094 949.716333,719.753333 949.181,719.072 C948.645667,718.390667 948.524,717.466 948.816,716.298 L948.816,716.298 L966.482,641.4 C966.871333,639.94 967.066,638.382667 967.066,636.728 C967.066,632.64 965.825,629.622667 963.343,627.676 C960.861,625.729333 958.014,624.756 954.802,624.756 C953.147333,624.756 951.492667,624.999333 949.838,625.486 C948.183333,625.972667 946.577333,626.751333 945.02,627.822 L945.02,627.822 L927.792,639.502 L933.632,648.116 L950.714,636.436 C951.492667,635.949333 952.222667,635.706 952.904,635.706 C953.877333,635.706 954.631667,636.022333 955.167,636.655 C955.702333,637.287667 955.824,638.188 955.532,639.356 L955.532,639.356 L937.866,714.4 C937.476667,715.86 937.282,717.417333 937.282,719.072 C937.282,723.16 938.523,726.177333 941.005,728.124 C943.487,730.070667 946.334,731.044 949.546,731.044 Z M1067.076,696.296 L1067.076,685.784 L1023.276,685.784 L1023.276,696.296 L1067.076,696.296 Z M1101.094,758.2 L1109.708,717.904 L1111.46,717.904 C1113.11467,721.7 1115.913,724.839 1119.855,727.321 C1123.797,729.803 1128.49333,731.044 1133.944,731.044 C1140.75733,731.044 1146.69467,729.73 1151.756,727.102 C1156.81733,724.474 1161.05133,720.921333 1164.458,716.444 C1167.86467,711.966667 1170.41967,706.808 1172.123,700.968 C1173.82633,695.128 1174.678,688.996 1174.678,682.572 C1174.678,678.581333 1173.99667,674.858333 1172.634,671.403 C1171.27133,667.947667 1169.39767,664.979 1167.013,662.497 C1164.62833,660.015 1161.757,658.068333 1158.399,656.657 C1155.041,655.245667 1151.36667,654.54 1147.376,654.54 C1141.63333,654.54 1136.69367,655.683667 1132.557,657.971 C1128.42033,660.258333 1124.892,663.592 1121.972,667.972 L1121.972,667.972 L1120.22,667.972 L1120.22,667.096 C1120.22,663.008 1119.07633,659.893333 1116.789,657.752 C1114.50167,655.610667 1111.41133,654.54 1107.518,654.54 C1104.306,654.54 1101.33733,655.464667 1098.612,657.314 L1098.612,657.314 L1091.75,661.986 L1097.59,670.6 L1105.62,665.052 C1106.00933,664.76 1106.44733,664.614 1106.934,664.614 C1107.71267,664.614 1108.29667,664.833 1108.686,665.271 C1109.07533,665.709 1109.17267,666.463333 1108.978,667.534 L1108.978,667.534 L1089.852,758.2 L1101.094,758.2 Z M1132.484,720.24 C1126.74133,720.24 1122.264,718.512333 1119.052,715.057 C1115.84,711.601667 1114.234,706.759333 1114.234,700.53 C1114.234,696.15 1114.964,691.867333 1116.424,687.682 C1117.884,683.496667 1119.928,679.749333 1122.556,676.44 C1125.184,673.130667 1128.323,670.454 1131.973,668.41 C1135.623,666.366 1139.68667,665.344 1144.164,665.344 C1149.712,665.344 1154.165,666.998667 1157.523,670.308 C1160.881,673.617333 1162.56,678.484 1162.56,684.908 C1162.56,689.482667 1161.903,693.911333 1160.589,698.194 C1159.275,702.476667 1157.32833,706.248333 1154.749,709.509 C1152.16967,712.769667 1149.00633,715.373333 1145.259,717.32 C1141.51167,719.266667 1137.25333,720.24 1132.484,720.24 Z M1243.006,731.044 C1244.66067,731.044 1246.291,730.800667 1247.897,730.314 C1249.503,729.827333 1250.84133,729.194667 1251.912,728.416 L1251.912,728.416 L1258.482,723.452 L1252.35,714.838 L1247.094,718.634 C1246.41267,719.120667 1245.73133,719.364 1245.05,719.364 C1244.36867,719.364 1243.83333,719.145 1243.444,718.707 C1243.05467,718.269 1242.95733,717.612 1243.152,716.736 L1243.152,716.736 L1256,656.584 L1244.612,656.584 L1242.276,667.972 L1240.524,667.972 C1239.45333,663.592 1237.166,660.258333 1233.662,657.971 C1230.158,655.683667 1225.924,654.54 1220.96,654.54 C1214.43867,654.54 1208.696,655.878333 1203.732,658.555 C1198.768,661.231667 1194.607,664.76 1191.249,669.14 C1187.891,673.52 1185.336,678.581333 1183.584,684.324 C1181.832,690.066667 1180.956,696.004 1180.956,702.136 C1180.956,706.418667 1181.54,710.336333 1182.708,713.889 C1183.876,717.441667 1185.53067,720.483333 1187.672,723.014 C1189.81333,725.544667 1192.44133,727.515667 1195.556,728.927 C1198.67067,730.338333 1202.17467,731.044 1206.068,731.044 C1210.64267,731.044 1214.99833,730.095 1219.135,728.197 C1223.27167,726.299 1226.84867,722.770667 1229.866,717.612 L1229.866,717.612 L1231.618,717.612 C1231.52067,718.098667 1231.44767,718.585333 1231.399,719.072 C1231.35033,719.558667 1231.326,720.045333 1231.326,720.532 C1231.326,722.478667 1231.66667,724.109 1232.348,725.423 C1233.02933,726.737 1233.92967,727.807667 1235.049,728.635 C1236.16833,729.462333 1237.40933,730.070667 1238.772,730.46 C1240.13467,730.849333 1241.546,731.044 1243.006,731.044 Z M1209.572,720.24 C1204.12133,720.24 1199.98467,718.585333 1197.162,715.276 C1194.33933,711.966667 1192.928,707.1 1192.928,700.676 C1192.928,696.101333 1193.53633,691.672667 1194.753,687.39 C1195.96967,683.107333 1197.79467,679.335667 1200.228,676.075 C1202.66133,672.814333 1205.60567,670.210667 1209.061,668.264 C1212.51633,666.317333 1216.53133,665.344 1221.106,665.344 C1226.84867,665.344 1231.08267,667.169 1233.808,670.819 C1236.53333,674.469 1237.896,679.311333 1237.896,685.346 C1237.896,690.31 1237.166,694.909 1235.706,699.143 C1234.246,703.377 1232.22633,707.051333 1229.647,710.166 C1227.06767,713.280667 1224.05033,715.738333 1220.595,717.539 C1217.13967,719.339667 1213.46533,720.24 1209.572,720.24 Z M1314.984,729 L1314.984,718.488 L1297.756,718.488 L1304.618,686.076 C1305.202,683.350667 1306.10233,680.722667 1307.319,678.192 C1308.53567,675.661333 1310.02,673.447 1311.772,671.549 C1313.524,669.651 1315.59233,668.142333 1317.977,667.023 C1320.36167,665.903667 1323.014,665.344 1325.934,665.344 C1330.022,665.344 1333.35567,666.463333 1335.935,668.702 C1338.51433,670.940667 1339.804,674.396 1339.804,679.068 C1339.804,680.722667 1339.56067,682.766667 1339.074,685.2 L1339.074,685.2 L1351.484,684.324 C1352.068,681.696 1352.36,679.116667 1352.36,676.586 C1352.36,669.967333 1350.36467,664.638333 1346.374,660.599 C1342.38333,656.559667 1336.884,654.54 1329.876,654.54 C1326.08,654.54 1322.43,655.343 1318.926,656.949 C1315.422,658.555 1312.25867,661.353333 1309.436,665.344 L1309.436,665.344 L1307.684,665.344 C1307.392,661.548 1306.12667,658.798333 1303.888,657.095 C1301.64933,655.391667 1299.02133,654.54 1296.004,654.54 C1292.59733,654.54 1289.23933,655.659333 1285.93,657.898 L1285.93,657.898 L1272.936,666.658 L1278.776,675.272 L1292.062,666.22 C1292.74333,665.733333 1293.47333,665.49 1294.252,665.49 C1295.128,665.49 1295.858,665.806333 1296.442,666.439 C1297.026,667.071667 1297.172,667.972 1296.88,669.14 L1296.88,669.14 L1286.368,718.488 L1268.556,718.488 L1268.556,729 L1314.984,729 Z M1396.014,731.044 C1400.978,731.044 1405.52833,730.484333 1409.665,729.365 C1413.80167,728.245667 1417.37867,726.591 1420.396,724.401 C1423.41333,722.211 1425.77367,719.51 1427.477,716.298 C1429.18033,713.086 1430.032,709.436 1430.032,705.348 C1430.032,699.508 1428.10967,695.079333 1424.265,692.062 C1420.42033,689.044667 1414.994,687.292667 1407.986,686.806 C1401.17267,686.319333 1396.379,685.297333 1393.605,683.74 C1390.831,682.182667 1389.444,679.846667 1389.444,676.732 C1389.444,674.688 1389.97933,672.911667 1391.05,671.403 C1392.12067,669.894333 1393.50767,668.653333 1395.211,667.68 C1396.91433,666.706667 1398.81233,665.976667 1400.905,665.49 C1402.99767,665.003333 1405.01733,664.76 1406.964,664.76 C1412.22,664.76 1416.235,665.879333 1419.009,668.118 C1421.783,670.356667 1423.17,673.325333 1423.17,677.024 C1423.17,677.218667 1423.14567,677.389 1423.097,677.535 C1423.04833,677.681 1423.024,677.851333 1423.024,678.046 L1423.024,678.046 L1423.024,678.63 L1434.266,677.024 L1434.266,675.418 C1434.266,672.79 1433.755,670.235 1432.733,667.753 C1431.711,665.271 1430.15367,663.056667 1428.061,661.11 C1425.96833,659.163333 1423.29167,657.581667 1420.031,656.365 C1416.77033,655.148333 1412.90133,654.54 1408.424,654.54 C1403.84933,654.54 1399.68833,655.124 1395.941,656.292 C1392.19367,657.46 1388.98167,659.090333 1386.305,661.183 C1383.62833,663.275667 1381.56,665.782 1380.1,668.702 C1378.64,671.622 1377.91,674.785333 1377.91,678.192 C1377.91,684.226667 1379.881,688.655333 1383.823,691.478 C1387.765,694.300667 1393.19133,695.955333 1400.102,696.442 C1406.13667,696.928667 1410.687,697.829 1413.753,699.143 C1416.819,700.457 1418.352,703.012 1418.352,706.808 C1418.352,709.241333 1417.71933,711.309667 1416.454,713.013 C1415.18867,714.716333 1413.58267,716.127667 1411.636,717.247 C1409.68933,718.366333 1407.52367,719.193667 1405.139,719.729 C1402.75433,720.264333 1400.44267,720.532 1398.204,720.532 C1394.79733,720.532 1391.926,720.142667 1389.59,719.364 C1387.254,718.585333 1385.356,717.539 1383.896,716.225 C1382.436,714.911 1381.38967,713.353667 1380.757,711.553 C1380.12433,709.752333 1379.808,707.781333 1379.808,705.64 L1379.808,705.64 L1379.808,704.764 C1379.808,704.569333 1379.85667,704.082667 1379.954,703.304 L1379.954,703.304 L1368.566,704.764 C1368.46867,705.250667 1368.42,705.761667 1368.42,706.297 L1368.42,706.297 L1368.42,707.83 C1368.42,710.75 1368.931,713.597 1369.953,716.371 C1370.975,719.145 1372.60533,721.627 1374.844,723.817 C1377.08267,726.007 1379.92967,727.759 1383.385,729.073 C1386.84033,730.387 1391.05,731.044 1396.014,731.044 Z M1481.716,731.044 C1486.48533,731.044 1490.71933,730.508667 1494.418,729.438 C1498.11667,728.367333 1501.37733,726.907333 1504.2,725.058 C1507.02267,723.208667 1509.456,721.043 1511.5,718.561 C1513.544,716.079 1515.24733,713.426667 1516.61,710.604 L1516.61,710.604 L1507.266,705.348 C1506.29267,707.392 1505.10033,709.314333 1503.689,711.115 C1502.27767,712.915667 1500.59867,714.521667 1498.652,715.933 C1496.70533,717.344333 1494.39367,718.439333 1491.717,719.218 C1489.04033,719.996667 1485.99867,720.386 1482.592,720.386 C1475.77867,720.386 1470.81467,718.658333 1467.7,715.203 C1464.58533,711.747667 1463.028,707.343333 1463.028,701.99 C1463.028,700.919333 1463.07667,699.897333 1463.174,698.924 C1463.27133,697.950667 1463.41733,697.074667 1463.612,696.296 L1463.612,696.296 L1521.72,696.296 L1523.326,689.434 C1523.91,687.000667 1524.202,684.47 1524.202,681.842 C1524.202,678.338 1523.618,674.955667 1522.45,671.695 C1521.282,668.434333 1519.53,665.514333 1517.194,662.935 C1514.858,660.355667 1511.88933,658.311667 1508.288,656.803 C1504.68667,655.294333 1500.45267,654.54 1495.586,654.54 C1488.67533,654.54 1482.49467,655.878333 1477.044,658.555 C1471.59333,661.231667 1467.01867,664.76 1463.32,669.14 C1459.62133,673.52 1456.79867,678.557 1454.852,684.251 C1452.90533,689.945 1451.932,695.858 1451.932,701.99 C1451.932,706.564667 1452.662,710.652667 1454.122,714.254 C1455.582,717.855333 1457.626,720.897 1460.254,723.379 C1462.882,725.861 1466.021,727.759 1469.671,729.073 C1473.321,730.387 1477.336,731.044 1481.716,731.044 Z M1512.522,685.784 L1466.094,685.784 C1467.06733,682.864 1468.43,680.163 1470.182,677.681 C1471.934,675.199 1474.02667,673.033333 1476.46,671.184 C1478.89333,669.334667 1481.59433,667.899 1484.563,666.877 C1487.53167,665.855 1490.71933,665.344 1494.126,665.344 C1499.47933,665.344 1503.95667,666.706667 1507.558,669.432 C1511.15933,672.157333 1512.96,676.148 1512.96,681.404 C1512.96,682.766667 1512.814,684.226667 1512.522,685.784 L1512.522,685.784 Z M1583.04,729 L1583.04,718.488 L1565.812,718.488 L1572.674,686.076 C1573.258,683.350667 1574.15833,680.722667 1575.375,678.192 C1576.59167,675.661333 1578.076,673.447 1579.828,671.549 C1581.58,669.651 1583.64833,668.142333 1586.033,667.023 C1588.41767,665.903667 1591.07,665.344 1593.99,665.344 C1598.078,665.344 1601.41167,666.463333 1603.991,668.702 C1606.57033,670.940667 1607.86,674.396 1607.86,679.068 C1607.86,680.722667 1607.61667,682.766667 1607.13,685.2 L1607.13,685.2 L1619.54,684.324 C1620.124,681.696 1620.416,679.116667 1620.416,676.586 C1620.416,669.967333 1618.42067,664.638333 1614.43,660.599 C1610.43933,656.559667 1604.94,654.54 1597.932,654.54 C1594.136,654.54 1590.486,655.343 1586.982,656.949 C1583.478,658.555 1580.31467,661.353333 1577.492,665.344 L1577.492,665.344 L1575.74,665.344 C1575.448,661.548 1574.18267,658.798333 1571.944,657.095 C1569.70533,655.391667 1567.07733,654.54 1564.06,654.54 C1560.65333,654.54 1557.29533,655.659333 1553.986,657.898 L1553.986,657.898 L1540.992,666.658 L1546.832,675.272 L1560.118,666.22 C1560.79933,665.733333 1561.52933,665.49 1562.308,665.49 C1563.184,665.49 1563.914,665.806333 1564.498,666.439 C1565.082,667.071667 1565.228,667.972 1564.936,669.14 L1564.936,669.14 L1554.424,718.488 L1536.612,718.488 L1536.612,729 L1583.04,729 Z" id="path-2"></path>
        <filter x="-1.4%" y="-10.1%" width="102.5%" height="120.2%" filterUnits="objectBoundingBox" id="filter-3">
            <feMorphology radius="4.5" operator="dilate" in="SourceAlpha" result="shadowSpreadOuter1"></feMorphology>
            <feOffset dx="0" dy="0" in="shadowSpreadOuter1" result="shadowOffsetOuter1"></feOffset>
            <feColorMatrix values="0 0 0 0 1   0 0 0 0 1   0 0 0 0 1  0 0 0 0.08 0" type="matrix" in="shadowOffsetOuter1"></feColorMatrix>
        </filter>
        <path d="M846.148,455.048 C850.361333,455.048 854.68,454.416 859.104,453.152 C863.528,451.888 867.846667,449.781333 872.06,446.832 L872.06,446.832 L917.88,415.864 L897.972,386.16 L855.628,415.232 L852.468,413.02 L886.912,269.24 C887.754667,265.237333 888.176,261.550667 888.176,258.18 C888.176,253.124 887.280667,248.542 885.49,244.434 C883.699333,240.326 881.224,236.85 878.064,234.006 C874.904,231.162 871.217333,228.95 867.004,227.37 C862.790667,225.79 858.366667,225 853.732,225 C849.518667,225 845.2,225.632 840.776,226.896 C836.352,228.16 832.033333,230.266667 827.82,233.216 L827.82,233.216 L782,264.184 L801.908,293.888 L844.252,264.816 L847.412,267.028 L812.968,410.808 C812.125333,414.389333 811.704,418.076 811.704,421.868 C811.704,426.924 812.599333,431.506 814.39,435.614 C816.180667,439.722 818.656,443.198 821.816,446.042 C824.976,448.886 828.662667,451.098 832.876,452.678 C837.089333,454.258 841.513333,455.048 846.148,455.048 Z M1000.99233,370.044 C1004.995,370.044 1008.83966,369.254 1012.52633,367.674 C1016.213,366.094 1019.42566,363.987333 1022.16433,361.354 C1024.903,358.720667 1027.06233,355.560667 1028.64233,351.874 C1030.22233,348.187333 1031.01233,344.237333 1031.01233,340.024 C1031.01233,335.810667 1030.22233,331.860667 1028.64233,328.174 C1027.06233,324.487333 1024.903,321.327333 1022.16433,318.694 C1019.42566,316.060667 1016.213,313.954 1012.52633,312.374 C1008.83966,310.794 1004.995,310.004 1000.99233,310.004 C996.778995,310.004 992.881662,310.794 989.300329,312.374 C985.718995,313.954 982.558995,316.060667 979.820329,318.694 C977.081662,321.327333 974.922329,324.487333 973.342329,328.174 C971.762329,331.860667 970.972329,335.810667 970.972329,340.024 C970.972329,344.237333 971.762329,348.187333 973.342329,351.874 C974.922329,355.560667 977.081662,358.720667 979.820329,361.354 C982.558995,363.987333 985.718995,366.094 989.300329,367.674 C992.881662,369.254 996.778995,370.044 1000.99233,370.044 Z M1146.35666,455.048 C1150.56999,455.048 1154.88866,454.416 1159.31266,453.152 C1163.73666,451.888 1168.05532,449.781333 1172.26866,446.832 L1172.26866,446.832 L1218.08866,415.864 L1198.18066,386.16 L1155.83666,415.232 L1152.67666,413.02 L1187.12066,269.24 C1187.96332,265.237333 1188.38466,261.550667 1188.38466,258.18 C1188.38466,253.124 1187.48932,248.542 1185.69866,244.434 C1183.90799,240.326 1181.43266,236.85 1178.27266,234.006 C1175.11266,231.162 1171.42599,228.95 1167.21266,227.37 C1162.99932,225.79 1158.57532,225 1153.94066,225 C1149.72732,225 1145.40866,225.632 1140.98466,226.896 C1136.56066,228.16 1132.24199,230.266667 1128.02866,233.216 L1128.02866,233.216 L1082.20866,264.184 L1102.11666,293.888 L1144.46066,264.816 L1147.62066,267.028 L1113.17666,410.808 C1112.33399,414.389333 1111.91266,418.076 1111.91266,421.868 C1111.91266,426.924 1112.80799,431.506 1114.59866,435.614 C1116.38932,439.722 1118.86466,443.198 1122.02466,446.042 C1125.18466,448.886 1128.87132,451.098 1133.08466,452.678 C1137.29799,454.258 1141.72199,455.048 1146.35666,455.048 Z" id="path-4"></path>
        <filter x="-4.3%" y="-6.5%" width="108.6%" height="113.0%" filterUnits="objectBoundingBox" id="filter-5">
            <feMorphology radius="5" operator="dilate" in="SourceAlpha" result="shadowSpreadOuter1"></feMorphology>
            <feOffset dx="0" dy="0" in="shadowSpreadOuter1" result="shadowOffsetOuter1"></feOffset>
            <feColorMatrix values="0 0 0 0 1   0 0 0 0 1   0 0 0 0 1  0 0 0 0.0822770979 0" type="matrix" in="shadowOffsetOuter1"></feColorMatrix>
        </filter>
    </defs>
    <g id="logo" stroke="none" stroke-width="1" fill="none" fill-rule="evenodd">
        <rect id="Rectangle" fill="url(#linearGradient-1)" x="50" y="50" width="1900" height="900"></rect>
        <g id="literal-parser" fill-rule="nonzero">
            <use fill="black" fill-opacity="1" filter="url(#filter-3)" xlink:href="#path-2"></use>
            <use fill="#FFFFFF" xlink:href="#path-2"></use>
        </g>
        <g id="l·l" fill-rule="nonzero">
            <use fill="black" fill-opacity="1" filter="url(#filter-5)" xlink:href="#path-4"></use>
            <use fill="#FFFFFF" xlink:href="#path-4"></use>
        </g>
    </g>
</svg>